<svg xmlns="http://www.w3.org/2000/svg" enable-background="new 0 0 48 48" viewBox="0 0 48 48" id="leaf">
  <path fill="#99D83E" d="M9,41c-1-1.1-4.1-5.2-4-11c0.1-5.6,3.2-11.4,8-14c6.3-3.4,9.9,1.6,19-2c2-0.8,6.9-2.9,10-8
			c1.2-1.9,1.7-3.7,2-5c0.8,1.3,2.5,4.6,2.1,9c-0.7,7.7-7.4,11.6-8.1,12l9-1c0,0-1,9-7,11h-5c2,2.3,4,4.7,6,7c-0.8,0.7-1.8,1.4-3,2
			c-2.7,1.4-5.3,1.9-7,2c-2.3-1.3-4.7-2.7-7-4c0.1,0.9,0.3,2.4,1,4c0.6,1.4,1.4,2.4,2,3c-1.4,0.5-3.5,1.1-6,1
			C19.2,46.9,13.3,46.1,9,41z"></path>
  <path fill="#404943" d="M21.5,48c-0.2,0-0.4,0-0.6,0c-0.8,0-7.7-0.4-12.7-6.4l0,0C6.9,40.1,3.9,35.8,4,30
				c0.1-6.2,3.5-12.1,8.5-14.9c3.3-1.8,6-1.5,8.8-1.1c2.9,0.4,5.9,0.8,10.3-1c1.6-0.6,6.6-2.6,9.5-7.6C42,4,42.6,2.5,43,0.8
				c0.1-0.4,0.4-0.7,0.8-0.8c0.4-0.1,0.8,0.1,1,0.5c1,1.7,2.7,5.2,2.3,9.6c-0.5,4.9-3.2,8.4-5.6,10.5l5.3-0.6c0.3,0,0.6,0.1,0.8,0.3
				c0.2,0.2,0.3,0.5,0.3,0.8c0,0.4-1.1,9.7-7.7,11.8C40.2,33,40.1,33,40,33h-2.8l4.6,5.3c0.2,0.2,0.3,0.5,0.2,0.7
				c0,0.3-0.2,0.5-0.4,0.7c-1,0.8-2,1.5-3.2,2.1c-2.3,1.2-4.8,1.9-7.4,2.1c-0.2,0-0.4,0-0.6-0.1l-5.2-3c0.1,0.6,0.3,1.1,0.6,1.7
				c0.5,1,1.1,1.9,1.8,2.7c0.2,0.2,0.3,0.6,0.2,0.9c-0.1,0.3-0.3,0.6-0.6,0.7C25.5,47.6,23.5,48,21.5,48z M9.8,40.4
				C14.2,45.6,20.3,46,21,46c1.4,0.1,2.9-0.1,4.3-0.5c-0.5-0.7-0.9-1.3-1.2-2.1c-0.6-1.4-1-2.8-1.1-4.4c0-0.4,0.2-0.7,0.5-0.9
				c0.3-0.2,0.7-0.2,1,0l6.7,3.8c2.2-0.2,4.4-0.8,6.3-1.9c0.7-0.4,1.4-0.8,2-1.3l-5.3-6.2c-0.3-0.3-0.3-0.7-0.1-1.1
				c0.2-0.4,0.5-0.6,0.9-0.6h4.8c4-1.4,5.5-6.5,6-8.9L38.1,23c-0.5,0.1-0.9-0.2-1.1-0.7c-0.1-0.5,0-0.9,0.5-1.2
				c0.7-0.4,7-4.1,7.6-11.2c0.2-2.4-0.3-4.6-0.9-6.2c-0.4,1-0.8,1.9-1.4,2.8c-3.3,5.5-8.7,7.7-10.5,8.4c-4.9,2-8.3,1.5-11.3,1.1
				c-2.7-0.4-4.8-0.7-7.6,0.9C9.1,19.3,6.1,24.5,6,30C5.9,35.2,8.6,39,9.8,40.4L9.8,40.4z"></path>
  <path fill="#404943" d="M1,48c-0.1,0-0.2,0-0.3-0.1c-0.5-0.2-0.8-0.8-0.6-1.3C3.7,36.1,8.6,29.9,14.7,28c1.1-0.3,2.2-0.5,3.4-0.7
				c2.2-0.4,4.5-0.7,7.4-2.2c2.9-1.5,5.5-3.8,7.7-6.7c0.3-0.4,1-0.5,1.4-0.2c0.4,0.3,0.5,1,0.2,1.4c-2.3,3.2-5.1,5.6-8.3,7.3
				c-3.2,1.7-5.8,2.1-8,2.4c-1.1,0.2-2.2,0.3-3.2,0.6c-5.4,1.6-9.9,7.5-13.3,17.4C1.8,47.7,1.4,48,1,48z"></path>
</svg>
